<svg width="122" height="101" viewBox="0 0 122 101" fill="none" xmlns="http://www.w3.org/2000/svg">
<g clip-path="url(#clip0_27_37)">
<path d="M35.5619 16.9145C35.0162 15.0987 34.2872 13.227 33.6206 12.2053C32.65 10.6727 32.0439 10.2756 28.7071 10.2756H22.6397V37.9109C22.6397 42.3368 23.125 42.9614 28.8883 43.3027V44.8911H11.2317V43.3027C16.8742 42.9614 17.3595 42.3947 17.3595 37.9109V10.2756H11.8378C8.501 10.2756 7.53038 10.6169 6.49935 12.319C5.77034 13.4545 5.28502 14.8153 4.49769 16.9166H2.67725C3.04175 13.4545 3.40626 9.88061 3.58747 6.70179H4.983C5.89323 8.06473 6.55975 8.00682 8.25939 8.00682H32.2855C33.9852 8.00682 34.4705 7.77932 35.3807 6.70179H36.8366C36.8366 9.36976 37.0803 13.4545 37.3823 16.747L35.5619 16.9166V16.9145Z" fill="#003255"/>
<path d="M119.792 28.6288C116.37 29.0838 116.149 29.423 116.149 32.7714V37.5386C116.149 39.5241 116.203 41.3979 116.48 42.9304C113.058 43.7246 108.586 44.9738 103.947 44.9738C91.4147 44.9738 83.7976 36.9719 83.7976 25.5658C83.7976 13.593 93.2935 6.44119 104.335 6.44119C109.965 6.44119 114.106 7.57663 115.818 7.85998C115.928 9.9592 116.205 13.4214 116.647 16.9973L114.991 17.3385C113.666 12.5155 112.064 10.4721 108.586 9.28083C107.316 8.82789 105.053 8.54248 103.452 8.54248C95.0056 8.54248 89.5401 14.501 89.5401 24.8854C89.5401 33.9089 94.0663 42.8746 104.776 42.8746C106.653 42.8746 108.365 42.4775 109.469 41.9108C110.629 41.2304 111.346 40.6058 111.346 38.279V33.6256C111.346 29.483 110.904 29.028 105.605 28.6309V26.9846H119.794V28.6309L119.792 28.6288Z" fill="#003255"/>
<path d="M44.4663 39.3628C46.6492 38.4755 48.855 37.6565 51.117 36.9905C51.394 36.9078 51.3961 36.6824 51.4669 36.4942C52.8 32.9782 54.1309 29.4602 55.4556 25.9402C56.4013 23.4314 57.3365 20.9186 58.2821 18.4099C58.3633 18.1948 58.405 17.8969 58.7174 17.9093C58.9903 17.9218 59.0028 18.2072 59.0736 18.3974C59.6985 20.0768 60.3171 21.7583 60.9316 23.4397C62.3729 27.3776 63.8184 31.3133 65.2452 35.2574C65.3785 35.6276 65.5701 35.76 65.9576 35.8241C69.1798 36.3453 72.3291 37.1519 75.3764 38.3328C76.0512 38.5934 76.7303 38.8416 77.5488 39.1497C76.4616 36.4549 75.441 33.9255 74.4183 31.3961C73.4226 28.9328 72.4166 26.4738 71.4293 24.0064C70.0858 20.6518 68.7611 17.291 67.4197 13.9363C66.4241 11.4462 65.4306 8.95612 64.3975 6.48256C63.6872 4.7825 63.0769 3.03487 62.1459 1.42995C61.8584 0.935652 61.5023 0.453762 60.9191 0.422739C60.2838 0.38758 59.9172 0.886015 59.6027 1.39893C59.0715 2.26343 58.7112 3.2024 58.3342 4.13309C57.0032 7.41531 55.6973 10.7058 54.3705 13.9901C53.0978 17.142 51.8002 20.2816 50.5317 23.4356C48.8966 27.4975 47.2803 31.5677 45.6556 35.6338C45.1703 36.8478 44.685 38.0619 44.1685 39.3545C44.3747 39.3628 44.4267 39.3814 44.4642 39.3648L44.4663 39.3628Z" fill="#003255"/>
<path d="M94.2743 66.3465C94.7638 66.3465 95.2387 66.2824 95.7053 66.1542C96.0781 66.0529 96.3926 65.8853 96.351 65.4221C96.3135 64.9898 95.9885 64.8905 95.6344 64.8512C95.3699 64.8223 95.1033 64.8326 94.8388 64.8099C93.8536 64.723 92.8538 64.7003 91.8832 64.5245C89.6732 64.1212 88.286 62.5928 87.1029 60.8555C85.0617 57.8587 83.8328 54.471 82.4664 51.1536C82.3039 50.7606 82.1332 50.4462 81.7374 50.227C77.9611 48.1299 74.0224 46.405 69.8983 45.0999C69.6546 45.0234 69.3338 44.8394 69.1505 45.0089C68.9214 45.222 69.1109 45.5467 69.2109 45.8114C70.4836 49.1495 71.7541 52.4896 73.0288 55.8277C73.8995 58.111 74.7785 60.3922 75.6429 62.6776C76.0719 63.8109 75.6908 64.512 74.516 64.814C74.3994 64.845 74.2848 64.8885 74.1661 64.905C73.8328 64.9505 73.7454 65.1594 73.7329 65.4614C73.7204 65.7943 73.9099 65.9536 74.1869 66.0156C74.4452 66.0735 74.7139 66.0859 74.9784 66.1004C79.0359 66.3424 83.0975 66.3569 87.1592 66.3445C89.5295 66.3445 91.8998 66.3403 94.2701 66.3465H94.2743Z" fill="#003255"/>
<path d="M47.5948 64.874C46.8449 64.8574 46.0951 64.8471 45.3494 64.7871C44.7058 64.7354 44.0434 64.723 43.4686 64.3507C42.3771 63.6393 42.2459 62.5804 42.4146 61.4263C42.6187 60.0261 43.0228 58.6797 43.529 57.3602C44.3788 55.1514 45.2182 52.9384 46.0576 50.7254C46.5054 49.5424 46.9449 48.3574 47.449 47.0068C47.1282 47.1185 46.9678 47.1619 46.8178 47.2261C44.4975 48.2271 42.2522 49.3728 40.0526 50.6138C39.6798 50.8247 39.4319 51.0646 39.2653 51.47C38.1051 54.3014 37.0824 57.1927 35.7181 59.9413C34.61 62.1729 33.0937 63.9681 30.4942 64.5182C29.357 64.7582 28.1947 64.785 27.0366 64.8347C26.6034 64.8533 26.1306 64.8657 26.1243 65.5006C26.1181 66.1087 26.5243 66.2969 27.0158 66.3217C27.8594 66.3631 28.7071 66.3796 29.5528 66.3569C34.8391 66.2121 40.1255 66.0136 45.414 66.3465C46.1347 66.392 46.8637 66.3507 47.5885 66.3259C48.1092 66.3072 48.2842 65.9556 48.2884 65.4965C48.2925 65.0374 48.0155 64.8843 47.5927 64.874H47.5948Z" fill="#003255"/>
<path d="M86.2782 50.4752C86.6489 50.7089 87.001 50.804 87.4238 50.804C91.3188 50.7978 95.2159 50.8185 99.1109 50.7896C99.7836 50.7854 100.046 50.9302 100.004 51.6479C99.9086 53.3293 100.702 54.5371 102.183 55.321C102.35 55.4099 102.543 55.4471 102.554 55.7015C102.585 56.4874 102.704 57.263 102.352 58.0365C101.319 60.2971 100.315 62.57 99.3233 64.8492C97.6987 68.5823 96.1011 72.3257 94.4785 76.0609C92.9705 79.5292 91.4354 82.9873 89.9316 86.4577C89.3984 87.6883 89.4234 87.6717 90.7772 87.6862C91.3542 87.6924 91.6541 87.5456 91.8958 86.9706C93.3413 83.5539 94.8472 80.1621 96.3302 76.7599C97.6424 73.7507 98.9484 70.7394 100.259 67.7302C101.013 65.9949 101.767 64.2618 102.541 62.4811C102.843 63.3704 102.629 64.1915 102.631 64.996C102.648 69.5605 102.737 74.125 102.598 78.6875C102.583 79.1921 102.65 84.8941 102.66 85.314C102.677 85.9861 102.66 86.6604 102.66 87.3325C102.654 89.0946 102.689 88.6624 104.135 88.6996C104.512 88.7079 104.599 88.5879 104.61 88.2012C104.651 86.6873 104.553 85.1775 104.562 83.6656C104.574 81.2169 104.651 78.7681 104.674 76.3194C104.695 74.0609 104.693 71.8024 104.674 69.5419C104.658 67.5999 104.718 65.6578 104.593 63.7179C104.581 63.5193 104.503 63.2215 104.77 63.1574C105.076 63.0809 105.049 63.4056 105.13 63.5876C106.274 66.1749 107.426 68.7601 108.561 71.3495C110.752 76.3504 112.972 81.3389 115.089 86.3729C115.537 87.438 116.097 87.8786 117.203 87.6717C117.249 87.6635 117.299 87.6697 117.349 87.6717C117.769 87.6924 117.828 87.56 117.653 87.1692C116.87 85.4174 116.124 83.6512 115.357 81.8932C113.864 78.4662 112.366 75.0433 110.869 71.6184C109.615 68.7477 108.357 65.8812 107.103 63.0105C106.374 61.3415 105.647 59.6725 104.92 58.0034C104.622 57.3209 104.526 56.5991 104.687 55.8877C104.816 55.3148 105.487 55.4678 105.88 55.2134C107.128 54.4068 107.824 53.319 107.84 51.8216C107.851 50.8061 107.859 50.8061 108.896 50.8061C109.865 50.8061 110.831 50.8164 111.8 50.804C112.546 50.7937 113.331 50.2829 113.514 49.7162C113.958 48.3532 113.141 47.3295 111.614 47.3295C104.089 47.3295 96.5635 47.3315 89.038 47.3315C88.6298 47.3315 88.2215 47.3564 87.8487 47.1082C87.3134 46.7483 86.7552 46.4236 86.2074 46.0823C81.5146 43.1517 76.5761 40.7361 71.2522 39.1622C67.8821 38.1653 64.4391 37.489 60.9065 37.5572C57.0407 37.6317 53.2873 38.4279 49.636 39.6482C44.4913 41.3668 39.7277 43.8797 35.1599 46.7648C34.5392 47.1578 33.9477 47.3481 33.2124 47.346C25.8807 47.3253 18.5489 47.3336 11.2171 47.3336C10.9505 47.3336 10.6839 47.3233 10.4194 47.3501C9.46959 47.4494 8.7989 48.2415 8.85305 49.1846C8.90721 50.1381 9.56956 50.7834 10.5402 50.7978C11.5316 50.8123 12.5252 50.8061 13.5166 50.8061C14.2609 50.8061 14.6414 51.168 14.6581 51.8919C14.6935 53.3955 15.662 55.017 16.9367 55.3499C17.7907 55.5733 17.9261 56.018 17.8824 56.7398C17.8553 57.1803 17.7657 57.6001 17.5991 57.9972C17.2034 58.9465 16.7764 59.8814 16.3639 60.8224C14.5268 65.0126 12.6835 69.2007 10.8526 73.395C8.95511 77.7423 7.06801 82.0938 5.183 86.4453C4.66644 87.6366 4.67686 87.6118 6.00366 87.68C6.5702 87.709 6.85556 87.5538 7.08676 87.0161C8.46147 83.8042 9.882 80.6109 11.2817 77.4093C12.6647 74.245 14.0374 71.0744 15.4183 67.908C16.0598 66.4375 16.7076 64.9691 17.3554 63.5007C17.4283 63.3352 17.4679 63.0809 17.7282 63.1719C17.9199 63.238 17.8803 63.4655 17.8511 63.6165C17.7678 64.0757 17.9136 64.5286 17.8824 64.9753C17.7157 67.3972 17.8865 69.819 17.8782 72.2409C17.8595 77.3328 17.8678 82.4247 17.8782 87.5166C17.8782 88.8113 17.897 88.7927 19.2092 88.7989C19.7257 88.801 19.9153 88.6707 19.9132 88.1081C19.8903 80.0587 19.8944 72.0072 19.8903 63.9578C19.8903 63.7903 19.8903 63.6207 19.9007 63.4531C19.909 63.3373 19.9194 63.205 20.0798 63.1884C20.1902 63.1781 20.2444 63.2567 20.2902 63.3456C20.3673 63.4945 20.4631 63.6372 20.5276 63.7903C21.2837 65.5503 22.0252 67.3145 22.7938 69.0704C25.3183 74.8406 27.8802 80.5923 30.3485 86.3874C30.7609 87.3532 31.19 87.8082 32.271 87.6924C33.1166 87.6014 33.1291 87.6862 32.7667 86.8589C31.3545 83.6367 29.9361 80.4144 28.5239 77.1922C25.8223 71.0269 23.1229 64.8595 20.4235 58.6942C20.0465 57.8359 19.7361 56.9611 19.8736 55.9952C19.9069 55.7698 19.8611 55.5443 20.1569 55.3996C21.7295 54.624 22.5397 53.3645 22.4876 51.6024C22.471 51.0253 22.6293 50.7813 23.3062 50.7896C27.1054 50.8289 30.9046 50.7958 34.7017 50.8227C35.3849 50.8268 35.9494 50.6613 36.5221 50.2994C39.659 48.3139 42.9312 46.5808 46.3596 45.1434C48.6945 44.1651 51.0878 43.3585 53.5206 42.6471C54.5475 42.3472 55.5972 42.2252 56.6179 41.9459C58.38 41.4641 60.1879 41.2159 61.9875 41.3544C65.1827 41.6006 68.3029 42.3203 71.3418 43.3275C76.6261 45.0793 81.5771 47.5301 86.2824 50.4814L86.2782 50.4752Z" fill="#003255"/>
<path d="M121.585 88.923C121.435 88.7762 121.221 88.9085 121.044 88.9726C117.79 90.166 114.431 90.8526 110.981 91.2104C106.041 91.7233 101.136 91.4131 96.2408 90.7513C93.4434 90.3728 90.6669 89.864 87.9238 89.1898C87.2781 89.0305 86.622 88.9085 85.9534 88.7658C85.9075 89.1795 86.1658 89.4049 86.322 89.6531C87.1198 90.9354 87.9529 92.1928 88.9361 93.3489C91.4855 96.3458 94.5286 98.6332 98.3299 99.8327C102.287 101.082 106.218 100.979 110.121 99.5556C115.27 97.6797 118.957 94.1928 121.508 89.4421C121.596 89.2767 121.748 89.0781 121.587 88.923H121.585Z" fill="#003255"/>
<path d="M30.2234 90.0977C26.1347 90.8464 22.0252 91.3883 17.8594 91.4648C12.4564 91.5641 7.16377 90.9436 2.02737 89.2063C1.6337 89.074 1.27128 88.7555 0.765137 88.892C0.802629 89.016 0.821375 89.1319 0.871364 89.2311C2.28981 92.0211 4.18316 94.443 6.65555 96.385C9.28832 98.4532 12.2377 99.8348 15.5682 100.414C19.282 101.059 22.8521 100.586 26.2451 99.0323C29.9131 97.353 32.7583 94.6788 35.037 91.3945C35.589 90.5982 36.0784 89.7565 36.67 88.8216C36.2701 88.8589 36.0305 88.8506 35.8056 88.9044C33.9518 89.3449 32.0939 89.7544 30.2193 90.0977H30.2234Z" fill="#003255"/>
</g>
<defs>
<clipPath id="clip0_27_37">
<rect width="120.889" height="100.283" fill="white" transform="translate(0.767334 0.418602)"/>
</clipPath>
</defs>
</svg>
